G04 #@! TF.GenerationSoftware,KiCad,Pcbnew,(5.0.1)-3*
G04 #@! TF.CreationDate,2019-02-21T23:49:24-07:00*
G04 #@! TF.ProjectId,PowerManagement2019,506F7765724D616E6167656D656E7432,rev?*
G04 #@! TF.SameCoordinates,Original*
G04 #@! TF.FileFunction,Soldermask,Bot*
G04 #@! TF.FilePolarity,Negative*
%FSLAX46Y46*%
G04 Gerber Fmt 4.6, Leading zero omitted, Abs format (unit mm)*
G04 Created by KiCad (PCBNEW (5.0.1)-3) date 2019-02-21 11:49:24 PM*
%MOMM*%
%LPD*%
G01*
G04 APERTURE LIST*
%ADD10C,0.100000*%
G04 APERTURE END LIST*
D10*
G36*
X242168643Y-155294781D02*
X242314415Y-155355162D01*
X242445611Y-155442824D01*
X242557176Y-155554389D01*
X242644838Y-155685585D01*
X242705219Y-155831357D01*
X242736000Y-155986107D01*
X242736000Y-156143893D01*
X242705219Y-156298643D01*
X242644838Y-156444415D01*
X242557176Y-156575611D01*
X242445611Y-156687176D01*
X242314415Y-156774838D01*
X242168643Y-156835219D01*
X242013893Y-156866000D01*
X241856107Y-156866000D01*
X241701357Y-156835219D01*
X241555585Y-156774838D01*
X241424389Y-156687176D01*
X241312824Y-156575611D01*
X241225162Y-156444415D01*
X241164781Y-156298643D01*
X241134000Y-156143893D01*
X241134000Y-155986107D01*
X241164781Y-155831357D01*
X241225162Y-155685585D01*
X241312824Y-155554389D01*
X241424389Y-155442824D01*
X241555585Y-155355162D01*
X241701357Y-155294781D01*
X241856107Y-155264000D01*
X242013893Y-155264000D01*
X242168643Y-155294781D01*
X242168643Y-155294781D01*
G37*
G36*
X239168643Y-155294781D02*
X239314415Y-155355162D01*
X239445611Y-155442824D01*
X239557176Y-155554389D01*
X239644838Y-155685585D01*
X239705219Y-155831357D01*
X239736000Y-155986107D01*
X239736000Y-156143893D01*
X239705219Y-156298643D01*
X239644838Y-156444415D01*
X239557176Y-156575611D01*
X239445611Y-156687176D01*
X239314415Y-156774838D01*
X239168643Y-156835219D01*
X239013893Y-156866000D01*
X238856107Y-156866000D01*
X238701357Y-156835219D01*
X238555585Y-156774838D01*
X238424389Y-156687176D01*
X238312824Y-156575611D01*
X238225162Y-156444415D01*
X238164781Y-156298643D01*
X238134000Y-156143893D01*
X238134000Y-155986107D01*
X238164781Y-155831357D01*
X238225162Y-155685585D01*
X238312824Y-155554389D01*
X238424389Y-155442824D01*
X238555585Y-155355162D01*
X238701357Y-155294781D01*
X238856107Y-155264000D01*
X239013893Y-155264000D01*
X239168643Y-155294781D01*
X239168643Y-155294781D01*
G37*
G36*
X245168643Y-155294781D02*
X245314415Y-155355162D01*
X245445611Y-155442824D01*
X245557176Y-155554389D01*
X245644838Y-155685585D01*
X245705219Y-155831357D01*
X245736000Y-155986107D01*
X245736000Y-156143893D01*
X245705219Y-156298643D01*
X245644838Y-156444415D01*
X245557176Y-156575611D01*
X245445611Y-156687176D01*
X245314415Y-156774838D01*
X245168643Y-156835219D01*
X245013893Y-156866000D01*
X244856107Y-156866000D01*
X244701357Y-156835219D01*
X244555585Y-156774838D01*
X244424389Y-156687176D01*
X244312824Y-156575611D01*
X244225162Y-156444415D01*
X244164781Y-156298643D01*
X244134000Y-156143893D01*
X244134000Y-155986107D01*
X244164781Y-155831357D01*
X244225162Y-155685585D01*
X244312824Y-155554389D01*
X244424389Y-155442824D01*
X244555585Y-155355162D01*
X244701357Y-155294781D01*
X244856107Y-155264000D01*
X245013893Y-155264000D01*
X245168643Y-155294781D01*
X245168643Y-155294781D01*
G37*
G36*
X245168643Y-152294781D02*
X245314415Y-152355162D01*
X245445611Y-152442824D01*
X245557176Y-152554389D01*
X245644838Y-152685585D01*
X245705219Y-152831357D01*
X245736000Y-152986107D01*
X245736000Y-153143893D01*
X245705219Y-153298643D01*
X245644838Y-153444415D01*
X245557176Y-153575611D01*
X245445611Y-153687176D01*
X245314415Y-153774838D01*
X245168643Y-153835219D01*
X245013893Y-153866000D01*
X244856107Y-153866000D01*
X244701357Y-153835219D01*
X244555585Y-153774838D01*
X244424389Y-153687176D01*
X244312824Y-153575611D01*
X244225162Y-153444415D01*
X244164781Y-153298643D01*
X244134000Y-153143893D01*
X244134000Y-152986107D01*
X244164781Y-152831357D01*
X244225162Y-152685585D01*
X244312824Y-152554389D01*
X244424389Y-152442824D01*
X244555585Y-152355162D01*
X244701357Y-152294781D01*
X244856107Y-152264000D01*
X245013893Y-152264000D01*
X245168643Y-152294781D01*
X245168643Y-152294781D01*
G37*
G36*
X242168643Y-152294781D02*
X242314415Y-152355162D01*
X242445611Y-152442824D01*
X242557176Y-152554389D01*
X242644838Y-152685585D01*
X242705219Y-152831357D01*
X242736000Y-152986107D01*
X242736000Y-153143893D01*
X242705219Y-153298643D01*
X242644838Y-153444415D01*
X242557176Y-153575611D01*
X242445611Y-153687176D01*
X242314415Y-153774838D01*
X242168643Y-153835219D01*
X242013893Y-153866000D01*
X241856107Y-153866000D01*
X241701357Y-153835219D01*
X241555585Y-153774838D01*
X241424389Y-153687176D01*
X241312824Y-153575611D01*
X241225162Y-153444415D01*
X241164781Y-153298643D01*
X241134000Y-153143893D01*
X241134000Y-152986107D01*
X241164781Y-152831357D01*
X241225162Y-152685585D01*
X241312824Y-152554389D01*
X241424389Y-152442824D01*
X241555585Y-152355162D01*
X241701357Y-152294781D01*
X241856107Y-152264000D01*
X242013893Y-152264000D01*
X242168643Y-152294781D01*
X242168643Y-152294781D01*
G37*
G36*
X239168643Y-152294781D02*
X239314415Y-152355162D01*
X239445611Y-152442824D01*
X239557176Y-152554389D01*
X239644838Y-152685585D01*
X239705219Y-152831357D01*
X239736000Y-152986107D01*
X239736000Y-153143893D01*
X239705219Y-153298643D01*
X239644838Y-153444415D01*
X239557176Y-153575611D01*
X239445611Y-153687176D01*
X239314415Y-153774838D01*
X239168643Y-153835219D01*
X239013893Y-153866000D01*
X238856107Y-153866000D01*
X238701357Y-153835219D01*
X238555585Y-153774838D01*
X238424389Y-153687176D01*
X238312824Y-153575611D01*
X238225162Y-153444415D01*
X238164781Y-153298643D01*
X238134000Y-153143893D01*
X238134000Y-152986107D01*
X238164781Y-152831357D01*
X238225162Y-152685585D01*
X238312824Y-152554389D01*
X238424389Y-152442824D01*
X238555585Y-152355162D01*
X238701357Y-152294781D01*
X238856107Y-152264000D01*
X239013893Y-152264000D01*
X239168643Y-152294781D01*
X239168643Y-152294781D01*
G37*
G36*
X231731000Y-153646000D02*
X228129000Y-153646000D01*
X228129000Y-146544000D01*
X231731000Y-146544000D01*
X231731000Y-153646000D01*
X231731000Y-153646000D01*
G37*
G36*
X223476000Y-153646000D02*
X219874000Y-153646000D01*
X219874000Y-146544000D01*
X223476000Y-146544000D01*
X223476000Y-153646000D01*
X223476000Y-153646000D01*
G37*
G36*
X210776000Y-152376000D02*
X207174000Y-152376000D01*
X207174000Y-145274000D01*
X210776000Y-145274000D01*
X210776000Y-152376000D01*
X210776000Y-152376000D01*
G37*
G36*
X242287527Y-147233736D02*
X242387410Y-147253604D01*
X242669674Y-147370521D01*
X242923705Y-147540259D01*
X243139741Y-147756295D01*
X243309479Y-148010326D01*
X243426396Y-148292590D01*
X243486000Y-148592240D01*
X243486000Y-148897760D01*
X243426396Y-149197410D01*
X243309479Y-149479674D01*
X243139741Y-149733705D01*
X242923705Y-149949741D01*
X242669674Y-150119479D01*
X242387410Y-150236396D01*
X242287527Y-150256264D01*
X242087762Y-150296000D01*
X241782238Y-150296000D01*
X241582473Y-150256264D01*
X241482590Y-150236396D01*
X241200326Y-150119479D01*
X240946295Y-149949741D01*
X240730259Y-149733705D01*
X240560521Y-149479674D01*
X240443604Y-149197410D01*
X240384000Y-148897760D01*
X240384000Y-148592240D01*
X240443604Y-148292590D01*
X240560521Y-148010326D01*
X240730259Y-147756295D01*
X240946295Y-147540259D01*
X241200326Y-147370521D01*
X241482590Y-147253604D01*
X241582473Y-147233736D01*
X241782238Y-147194000D01*
X242087762Y-147194000D01*
X242287527Y-147233736D01*
X242287527Y-147233736D01*
G37*
G36*
X233881000Y-144946000D02*
X226779000Y-144946000D01*
X226779000Y-141344000D01*
X233881000Y-141344000D01*
X233881000Y-144946000D01*
X233881000Y-144946000D01*
G37*
G36*
X225626000Y-144946000D02*
X218524000Y-144946000D01*
X218524000Y-141344000D01*
X225626000Y-141344000D01*
X225626000Y-144946000D01*
X225626000Y-144946000D01*
G37*
G36*
X212926000Y-143676000D02*
X205824000Y-143676000D01*
X205824000Y-140074000D01*
X212926000Y-140074000D01*
X212926000Y-143676000D01*
X212926000Y-143676000D01*
G37*
M02*
