G04 #@! TF.GenerationSoftware,KiCad,Pcbnew,(5.0.1)-3*
G04 #@! TF.CreationDate,2019-02-21T23:49:24-07:00*
G04 #@! TF.ProjectId,PowerManagement2019,506F7765724D616E6167656D656E7432,rev?*
G04 #@! TF.SameCoordinates,Original*
G04 #@! TF.FileFunction,Paste,Bot*
G04 #@! TF.FilePolarity,Positive*
%FSLAX46Y46*%
G04 Gerber Fmt 4.6, Leading zero omitted, Abs format (unit mm)*
G04 Created by KiCad (PCBNEW (5.0.1)-3) date 2019-02-21 11:49:24 PM*
%MOMM*%
%LPD*%
G01*
G04 APERTURE LIST*
%ADD10C,0.300000*%
G04 APERTURE END LIST*
D10*
X207420000Y-192932857D02*
X206920000Y-192932857D01*
X206920000Y-193718571D02*
X206920000Y-192218571D01*
X207634285Y-192218571D01*
X208777142Y-193647142D02*
X208634285Y-193718571D01*
X208348571Y-193718571D01*
X208205714Y-193647142D01*
X208134285Y-193504285D01*
X208134285Y-192932857D01*
X208205714Y-192790000D01*
X208348571Y-192718571D01*
X208634285Y-192718571D01*
X208777142Y-192790000D01*
X208848571Y-192932857D01*
X208848571Y-193075714D01*
X208134285Y-193218571D01*
X209491428Y-193718571D02*
X209491428Y-192218571D01*
X209491428Y-192790000D02*
X209634285Y-192718571D01*
X209920000Y-192718571D01*
X210062857Y-192790000D01*
X210134285Y-192861428D01*
X210205714Y-193004285D01*
X210205714Y-193432857D01*
X210134285Y-193575714D01*
X210062857Y-193647142D01*
X209920000Y-193718571D01*
X209634285Y-193718571D01*
X209491428Y-193647142D01*
X210848571Y-193718571D02*
X210848571Y-192718571D01*
X210848571Y-193004285D02*
X210920000Y-192861428D01*
X210991428Y-192790000D01*
X211134285Y-192718571D01*
X211277142Y-192718571D01*
X212420000Y-192718571D02*
X212420000Y-193718571D01*
X211777142Y-192718571D02*
X211777142Y-193504285D01*
X211848571Y-193647142D01*
X211991428Y-193718571D01*
X212205714Y-193718571D01*
X212348571Y-193647142D01*
X212420000Y-193575714D01*
X213777142Y-193718571D02*
X213777142Y-192932857D01*
X213705714Y-192790000D01*
X213562857Y-192718571D01*
X213277142Y-192718571D01*
X213134285Y-192790000D01*
X213777142Y-193647142D02*
X213634285Y-193718571D01*
X213277142Y-193718571D01*
X213134285Y-193647142D01*
X213062857Y-193504285D01*
X213062857Y-193361428D01*
X213134285Y-193218571D01*
X213277142Y-193147142D01*
X213634285Y-193147142D01*
X213777142Y-193075714D01*
X214491428Y-193718571D02*
X214491428Y-192718571D01*
X214491428Y-193004285D02*
X214562857Y-192861428D01*
X214634285Y-192790000D01*
X214777142Y-192718571D01*
X214920000Y-192718571D01*
X215277142Y-192718571D02*
X215634285Y-193718571D01*
X215991428Y-192718571D02*
X215634285Y-193718571D01*
X215491428Y-194075714D01*
X215420000Y-194147142D01*
X215277142Y-194218571D01*
X217634285Y-192361428D02*
X217705714Y-192290000D01*
X217848571Y-192218571D01*
X218205714Y-192218571D01*
X218348571Y-192290000D01*
X218420000Y-192361428D01*
X218491428Y-192504285D01*
X218491428Y-192647142D01*
X218420000Y-192861428D01*
X217562857Y-193718571D01*
X218491428Y-193718571D01*
X219920000Y-193718571D02*
X219062857Y-193718571D01*
X219491428Y-193718571D02*
X219491428Y-192218571D01*
X219348571Y-192432857D01*
X219205714Y-192575714D01*
X219062857Y-192647142D01*
X220634285Y-193647142D02*
X220634285Y-193718571D01*
X220562857Y-193861428D01*
X220491428Y-193932857D01*
X222348571Y-192361428D02*
X222420000Y-192290000D01*
X222562857Y-192218571D01*
X222920000Y-192218571D01*
X223062857Y-192290000D01*
X223134285Y-192361428D01*
X223205714Y-192504285D01*
X223205714Y-192647142D01*
X223134285Y-192861428D01*
X222277142Y-193718571D01*
X223205714Y-193718571D01*
X224134285Y-192218571D02*
X224277142Y-192218571D01*
X224420000Y-192290000D01*
X224491428Y-192361428D01*
X224562857Y-192504285D01*
X224634285Y-192790000D01*
X224634285Y-193147142D01*
X224562857Y-193432857D01*
X224491428Y-193575714D01*
X224420000Y-193647142D01*
X224277142Y-193718571D01*
X224134285Y-193718571D01*
X223991428Y-193647142D01*
X223920000Y-193575714D01*
X223848571Y-193432857D01*
X223777142Y-193147142D01*
X223777142Y-192790000D01*
X223848571Y-192504285D01*
X223920000Y-192361428D01*
X223991428Y-192290000D01*
X224134285Y-192218571D01*
X226062857Y-193718571D02*
X225205714Y-193718571D01*
X225634285Y-193718571D02*
X225634285Y-192218571D01*
X225491428Y-192432857D01*
X225348571Y-192575714D01*
X225205714Y-192647142D01*
X226920000Y-192861428D02*
X226777142Y-192790000D01*
X226705714Y-192718571D01*
X226634285Y-192575714D01*
X226634285Y-192504285D01*
X226705714Y-192361428D01*
X226777142Y-192290000D01*
X226920000Y-192218571D01*
X227205714Y-192218571D01*
X227348571Y-192290000D01*
X227420000Y-192361428D01*
X227491428Y-192504285D01*
X227491428Y-192575714D01*
X227420000Y-192718571D01*
X227348571Y-192790000D01*
X227205714Y-192861428D01*
X226920000Y-192861428D01*
X226777142Y-192932857D01*
X226705714Y-193004285D01*
X226634285Y-193147142D01*
X226634285Y-193432857D01*
X226705714Y-193575714D01*
X226777142Y-193647142D01*
X226920000Y-193718571D01*
X227205714Y-193718571D01*
X227348571Y-193647142D01*
X227420000Y-193575714D01*
X227491428Y-193432857D01*
X227491428Y-193147142D01*
X227420000Y-193004285D01*
X227348571Y-192932857D01*
X227205714Y-192861428D01*
X186973571Y-189908571D02*
X186973571Y-188408571D01*
X187545000Y-188408571D01*
X187687857Y-188480000D01*
X187759285Y-188551428D01*
X187830714Y-188694285D01*
X187830714Y-188908571D01*
X187759285Y-189051428D01*
X187687857Y-189122857D01*
X187545000Y-189194285D01*
X186973571Y-189194285D01*
X188687857Y-189908571D02*
X188545000Y-189837142D01*
X188473571Y-189765714D01*
X188402142Y-189622857D01*
X188402142Y-189194285D01*
X188473571Y-189051428D01*
X188545000Y-188980000D01*
X188687857Y-188908571D01*
X188902142Y-188908571D01*
X189045000Y-188980000D01*
X189116428Y-189051428D01*
X189187857Y-189194285D01*
X189187857Y-189622857D01*
X189116428Y-189765714D01*
X189045000Y-189837142D01*
X188902142Y-189908571D01*
X188687857Y-189908571D01*
X189687857Y-188908571D02*
X189973571Y-189908571D01*
X190259285Y-189194285D01*
X190545000Y-189908571D01*
X190830714Y-188908571D01*
X191973571Y-189837142D02*
X191830714Y-189908571D01*
X191545000Y-189908571D01*
X191402142Y-189837142D01*
X191330714Y-189694285D01*
X191330714Y-189122857D01*
X191402142Y-188980000D01*
X191545000Y-188908571D01*
X191830714Y-188908571D01*
X191973571Y-188980000D01*
X192045000Y-189122857D01*
X192045000Y-189265714D01*
X191330714Y-189408571D01*
X192687857Y-189908571D02*
X192687857Y-188908571D01*
X192687857Y-189194285D02*
X192759285Y-189051428D01*
X192830714Y-188980000D01*
X192973571Y-188908571D01*
X193116428Y-188908571D01*
X194759285Y-189908571D02*
X194759285Y-188408571D01*
X195259285Y-189480000D01*
X195759285Y-188408571D01*
X195759285Y-189908571D01*
X197116428Y-189908571D02*
X197116428Y-189122857D01*
X197045000Y-188980000D01*
X196902142Y-188908571D01*
X196616428Y-188908571D01*
X196473571Y-188980000D01*
X197116428Y-189837142D02*
X196973571Y-189908571D01*
X196616428Y-189908571D01*
X196473571Y-189837142D01*
X196402142Y-189694285D01*
X196402142Y-189551428D01*
X196473571Y-189408571D01*
X196616428Y-189337142D01*
X196973571Y-189337142D01*
X197116428Y-189265714D01*
X197830714Y-188908571D02*
X197830714Y-189908571D01*
X197830714Y-189051428D02*
X197902142Y-188980000D01*
X198045000Y-188908571D01*
X198259285Y-188908571D01*
X198402142Y-188980000D01*
X198473571Y-189122857D01*
X198473571Y-189908571D01*
X199830714Y-189908571D02*
X199830714Y-189122857D01*
X199759285Y-188980000D01*
X199616428Y-188908571D01*
X199330714Y-188908571D01*
X199187857Y-188980000D01*
X199830714Y-189837142D02*
X199687857Y-189908571D01*
X199330714Y-189908571D01*
X199187857Y-189837142D01*
X199116428Y-189694285D01*
X199116428Y-189551428D01*
X199187857Y-189408571D01*
X199330714Y-189337142D01*
X199687857Y-189337142D01*
X199830714Y-189265714D01*
X201187857Y-188908571D02*
X201187857Y-190122857D01*
X201116428Y-190265714D01*
X201045000Y-190337142D01*
X200902142Y-190408571D01*
X200687857Y-190408571D01*
X200545000Y-190337142D01*
X201187857Y-189837142D02*
X201045000Y-189908571D01*
X200759285Y-189908571D01*
X200616428Y-189837142D01*
X200545000Y-189765714D01*
X200473571Y-189622857D01*
X200473571Y-189194285D01*
X200545000Y-189051428D01*
X200616428Y-188980000D01*
X200759285Y-188908571D01*
X201045000Y-188908571D01*
X201187857Y-188980000D01*
X202473571Y-189837142D02*
X202330714Y-189908571D01*
X202045000Y-189908571D01*
X201902142Y-189837142D01*
X201830714Y-189694285D01*
X201830714Y-189122857D01*
X201902142Y-188980000D01*
X202045000Y-188908571D01*
X202330714Y-188908571D01*
X202473571Y-188980000D01*
X202545000Y-189122857D01*
X202545000Y-189265714D01*
X201830714Y-189408571D01*
X203187857Y-189908571D02*
X203187857Y-188908571D01*
X203187857Y-189051428D02*
X203259285Y-188980000D01*
X203402142Y-188908571D01*
X203616428Y-188908571D01*
X203759285Y-188980000D01*
X203830714Y-189122857D01*
X203830714Y-189908571D01*
X203830714Y-189122857D02*
X203902142Y-188980000D01*
X204045000Y-188908571D01*
X204259285Y-188908571D01*
X204402142Y-188980000D01*
X204473571Y-189122857D01*
X204473571Y-189908571D01*
X205759285Y-189837142D02*
X205616428Y-189908571D01*
X205330714Y-189908571D01*
X205187857Y-189837142D01*
X205116428Y-189694285D01*
X205116428Y-189122857D01*
X205187857Y-188980000D01*
X205330714Y-188908571D01*
X205616428Y-188908571D01*
X205759285Y-188980000D01*
X205830714Y-189122857D01*
X205830714Y-189265714D01*
X205116428Y-189408571D01*
X206473571Y-188908571D02*
X206473571Y-189908571D01*
X206473571Y-189051428D02*
X206545000Y-188980000D01*
X206687857Y-188908571D01*
X206902142Y-188908571D01*
X207045000Y-188980000D01*
X207116428Y-189122857D01*
X207116428Y-189908571D01*
X207616428Y-188908571D02*
X208187857Y-188908571D01*
X207830714Y-188408571D02*
X207830714Y-189694285D01*
X207902142Y-189837142D01*
X208045000Y-189908571D01*
X208187857Y-189908571D01*
X210330714Y-189122857D02*
X210545000Y-189194285D01*
X210616428Y-189265714D01*
X210687857Y-189408571D01*
X210687857Y-189622857D01*
X210616428Y-189765714D01*
X210545000Y-189837142D01*
X210402142Y-189908571D01*
X209830714Y-189908571D01*
X209830714Y-188408571D01*
X210330714Y-188408571D01*
X210473571Y-188480000D01*
X210545000Y-188551428D01*
X210616428Y-188694285D01*
X210616428Y-188837142D01*
X210545000Y-188980000D01*
X210473571Y-189051428D01*
X210330714Y-189122857D01*
X209830714Y-189122857D01*
X211545000Y-189908571D02*
X211402142Y-189837142D01*
X211330714Y-189765714D01*
X211259285Y-189622857D01*
X211259285Y-189194285D01*
X211330714Y-189051428D01*
X211402142Y-188980000D01*
X211545000Y-188908571D01*
X211759285Y-188908571D01*
X211902142Y-188980000D01*
X211973571Y-189051428D01*
X212045000Y-189194285D01*
X212045000Y-189622857D01*
X211973571Y-189765714D01*
X211902142Y-189837142D01*
X211759285Y-189908571D01*
X211545000Y-189908571D01*
X213330714Y-189908571D02*
X213330714Y-189122857D01*
X213259285Y-188980000D01*
X213116428Y-188908571D01*
X212830714Y-188908571D01*
X212687857Y-188980000D01*
X213330714Y-189837142D02*
X213187857Y-189908571D01*
X212830714Y-189908571D01*
X212687857Y-189837142D01*
X212616428Y-189694285D01*
X212616428Y-189551428D01*
X212687857Y-189408571D01*
X212830714Y-189337142D01*
X213187857Y-189337142D01*
X213330714Y-189265714D01*
X214045000Y-189908571D02*
X214045000Y-188908571D01*
X214045000Y-189194285D02*
X214116428Y-189051428D01*
X214187857Y-188980000D01*
X214330714Y-188908571D01*
X214473571Y-188908571D01*
X215616428Y-189908571D02*
X215616428Y-188408571D01*
X215616428Y-189837142D02*
X215473571Y-189908571D01*
X215187857Y-189908571D01*
X215045000Y-189837142D01*
X214973571Y-189765714D01*
X214902142Y-189622857D01*
X214902142Y-189194285D01*
X214973571Y-189051428D01*
X215045000Y-188980000D01*
X215187857Y-188908571D01*
X215473571Y-188908571D01*
X215616428Y-188980000D01*
X180947857Y-168943571D02*
X180947857Y-167443571D01*
X181447857Y-168515000D01*
X181947857Y-167443571D01*
X181947857Y-168943571D01*
X183305000Y-168943571D02*
X183305000Y-168157857D01*
X183233571Y-168015000D01*
X183090714Y-167943571D01*
X182805000Y-167943571D01*
X182662142Y-168015000D01*
X183305000Y-168872142D02*
X183162142Y-168943571D01*
X182805000Y-168943571D01*
X182662142Y-168872142D01*
X182590714Y-168729285D01*
X182590714Y-168586428D01*
X182662142Y-168443571D01*
X182805000Y-168372142D01*
X183162142Y-168372142D01*
X183305000Y-168300714D01*
X183805000Y-167943571D02*
X184376428Y-167943571D01*
X184019285Y-167443571D02*
X184019285Y-168729285D01*
X184090714Y-168872142D01*
X184233571Y-168943571D01*
X184376428Y-168943571D01*
X184662142Y-167943571D02*
X185233571Y-167943571D01*
X184876428Y-167443571D02*
X184876428Y-168729285D01*
X184947857Y-168872142D01*
X185090714Y-168943571D01*
X185233571Y-168943571D01*
X187733571Y-168800714D02*
X187662142Y-168872142D01*
X187447857Y-168943571D01*
X187305000Y-168943571D01*
X187090714Y-168872142D01*
X186947857Y-168729285D01*
X186876428Y-168586428D01*
X186805000Y-168300714D01*
X186805000Y-168086428D01*
X186876428Y-167800714D01*
X186947857Y-167657857D01*
X187090714Y-167515000D01*
X187305000Y-167443571D01*
X187447857Y-167443571D01*
X187662142Y-167515000D01*
X187733571Y-167586428D01*
X188376428Y-168943571D02*
X188376428Y-167943571D01*
X188376428Y-168229285D02*
X188447857Y-168086428D01*
X188519285Y-168015000D01*
X188662142Y-167943571D01*
X188805000Y-167943571D01*
X189947857Y-167943571D02*
X189947857Y-168943571D01*
X189305000Y-167943571D02*
X189305000Y-168729285D01*
X189376428Y-168872142D01*
X189519285Y-168943571D01*
X189733571Y-168943571D01*
X189876428Y-168872142D01*
X189947857Y-168800714D01*
X190519285Y-167943571D02*
X191305000Y-167943571D01*
X190519285Y-168943571D01*
X191305000Y-168943571D01*
X178519285Y-171065000D02*
X179233571Y-171065000D01*
X178376428Y-171493571D02*
X178876428Y-169993571D01*
X179376428Y-171493571D01*
X179876428Y-170493571D02*
X179876428Y-171493571D01*
X179876428Y-170636428D02*
X179947857Y-170565000D01*
X180090714Y-170493571D01*
X180305000Y-170493571D01*
X180447857Y-170565000D01*
X180519285Y-170707857D01*
X180519285Y-171493571D01*
X181876428Y-171493571D02*
X181876428Y-169993571D01*
X181876428Y-171422142D02*
X181733571Y-171493571D01*
X181447857Y-171493571D01*
X181305000Y-171422142D01*
X181233571Y-171350714D01*
X181162142Y-171207857D01*
X181162142Y-170779285D01*
X181233571Y-170636428D01*
X181305000Y-170565000D01*
X181447857Y-170493571D01*
X181733571Y-170493571D01*
X181876428Y-170565000D01*
X182590714Y-171493571D02*
X182590714Y-170493571D01*
X182590714Y-170779285D02*
X182662142Y-170636428D01*
X182733571Y-170565000D01*
X182876428Y-170493571D01*
X183019285Y-170493571D01*
X184090714Y-171422142D02*
X183947857Y-171493571D01*
X183662142Y-171493571D01*
X183519285Y-171422142D01*
X183447857Y-171279285D01*
X183447857Y-170707857D01*
X183519285Y-170565000D01*
X183662142Y-170493571D01*
X183947857Y-170493571D01*
X184090714Y-170565000D01*
X184162142Y-170707857D01*
X184162142Y-170850714D01*
X183447857Y-170993571D01*
X184662142Y-170493571D02*
X184947857Y-171493571D01*
X185233571Y-170779285D01*
X185519285Y-171493571D01*
X185805000Y-170493571D01*
X188376428Y-171350714D02*
X188305000Y-171422142D01*
X188090714Y-171493571D01*
X187947857Y-171493571D01*
X187733571Y-171422142D01*
X187590714Y-171279285D01*
X187519285Y-171136428D01*
X187447857Y-170850714D01*
X187447857Y-170636428D01*
X187519285Y-170350714D01*
X187590714Y-170207857D01*
X187733571Y-170065000D01*
X187947857Y-169993571D01*
X188090714Y-169993571D01*
X188305000Y-170065000D01*
X188376428Y-170136428D01*
X189662142Y-170493571D02*
X189662142Y-171493571D01*
X189019285Y-170493571D02*
X189019285Y-171279285D01*
X189090714Y-171422142D01*
X189233571Y-171493571D01*
X189447857Y-171493571D01*
X189590714Y-171422142D01*
X189662142Y-171350714D01*
X190376428Y-171493571D02*
X190376428Y-170493571D01*
X190376428Y-170779285D02*
X190447857Y-170636428D01*
X190519285Y-170565000D01*
X190662142Y-170493571D01*
X190805000Y-170493571D01*
X191305000Y-171493571D02*
X191305000Y-170493571D01*
X191305000Y-170779285D02*
X191376428Y-170636428D01*
X191447857Y-170565000D01*
X191590714Y-170493571D01*
X191733571Y-170493571D01*
X192233571Y-171493571D02*
X192233571Y-170493571D01*
X192233571Y-169993571D02*
X192162142Y-170065000D01*
X192233571Y-170136428D01*
X192305000Y-170065000D01*
X192233571Y-169993571D01*
X192233571Y-170136428D01*
X193519285Y-171422142D02*
X193376428Y-171493571D01*
X193090714Y-171493571D01*
X192947857Y-171422142D01*
X192876428Y-171279285D01*
X192876428Y-170707857D01*
X192947857Y-170565000D01*
X193090714Y-170493571D01*
X193376428Y-170493571D01*
X193519285Y-170565000D01*
X193590714Y-170707857D01*
X193590714Y-170850714D01*
X192876428Y-170993571D01*
X179590714Y-174043571D02*
X179590714Y-172543571D01*
X180090714Y-173615000D01*
X180590714Y-172543571D01*
X180590714Y-174043571D01*
X181947857Y-174043571D02*
X181947857Y-173257857D01*
X181876428Y-173115000D01*
X181733571Y-173043571D01*
X181447857Y-173043571D01*
X181305000Y-173115000D01*
X181947857Y-173972142D02*
X181805000Y-174043571D01*
X181447857Y-174043571D01*
X181305000Y-173972142D01*
X181233571Y-173829285D01*
X181233571Y-173686428D01*
X181305000Y-173543571D01*
X181447857Y-173472142D01*
X181805000Y-173472142D01*
X181947857Y-173400714D01*
X182662142Y-173043571D02*
X182662142Y-174043571D01*
X182662142Y-173186428D02*
X182733571Y-173115000D01*
X182876428Y-173043571D01*
X183090714Y-173043571D01*
X183233571Y-173115000D01*
X183305000Y-173257857D01*
X183305000Y-174043571D01*
X184019285Y-173043571D02*
X184019285Y-174329285D01*
X183947857Y-174472142D01*
X183805000Y-174543571D01*
X183733571Y-174543571D01*
X184019285Y-172543571D02*
X183947857Y-172615000D01*
X184019285Y-172686428D01*
X184090714Y-172615000D01*
X184019285Y-172543571D01*
X184019285Y-172686428D01*
X185305000Y-173972142D02*
X185162142Y-174043571D01*
X184876428Y-174043571D01*
X184733571Y-173972142D01*
X184662142Y-173829285D01*
X184662142Y-173257857D01*
X184733571Y-173115000D01*
X184876428Y-173043571D01*
X185162142Y-173043571D01*
X185305000Y-173115000D01*
X185376428Y-173257857D01*
X185376428Y-173400714D01*
X184662142Y-173543571D01*
X186590714Y-173972142D02*
X186447857Y-174043571D01*
X186162142Y-174043571D01*
X186019285Y-173972142D01*
X185947857Y-173829285D01*
X185947857Y-173257857D01*
X186019285Y-173115000D01*
X186162142Y-173043571D01*
X186447857Y-173043571D01*
X186590714Y-173115000D01*
X186662142Y-173257857D01*
X186662142Y-173400714D01*
X185947857Y-173543571D01*
X187090714Y-173043571D02*
X187662142Y-173043571D01*
X187305000Y-172543571D02*
X187305000Y-173829285D01*
X187376428Y-173972142D01*
X187519285Y-174043571D01*
X187662142Y-174043571D01*
X189305000Y-174043571D02*
X189305000Y-172543571D01*
X189662142Y-172543571D01*
X189876428Y-172615000D01*
X190019285Y-172757857D01*
X190090714Y-172900714D01*
X190162142Y-173186428D01*
X190162142Y-173400714D01*
X190090714Y-173686428D01*
X190019285Y-173829285D01*
X189876428Y-173972142D01*
X189662142Y-174043571D01*
X189305000Y-174043571D01*
X191376428Y-173972142D02*
X191233571Y-174043571D01*
X190947857Y-174043571D01*
X190805000Y-173972142D01*
X190733571Y-173829285D01*
X190733571Y-173257857D01*
X190805000Y-173115000D01*
X190947857Y-173043571D01*
X191233571Y-173043571D01*
X191376428Y-173115000D01*
X191447857Y-173257857D01*
X191447857Y-173400714D01*
X190733571Y-173543571D01*
X191947857Y-173043571D02*
X192305000Y-174043571D01*
X192662142Y-173043571D01*
M02*
